<?xml version="1.0" encoding="UTF-8"?> <svg xmlns="http://www.w3.org/2000/svg" width="57" height="54" viewBox="0 0 57 54" fill="none"> <path d="M55.3624 6.08302H43.8102V1.09341C43.8102 0.48912 43.3203 0 42.7167 0C42.1132 0 41.6233 0.48912 41.6233 1.09341V6.08302H13.5846V1.09341C13.5846 0.48912 13.0954 0 12.4912 0C11.8869 0 11.3977 0.48912 11.3977 1.09341V6.08302H1.09341C0.48912 6.08302 0 6.57214 0 7.17643V52.6916C0 53.2951 0.48912 53.785 1.09341 53.785H55.3624C55.966 53.785 56.4558 53.2951 56.4558 52.6916V7.17643C56.4558 6.57214 55.966 6.08302 55.3624 6.08302ZM54.269 51.5982H2.18683V8.26985H11.3977V11.58C11.3977 12.1843 11.8869 12.6734 12.4912 12.6734C13.0954 12.6734 13.5846 12.1843 13.5846 11.58V8.26985H41.6233V11.58C41.6233 12.1843 42.1132 12.6734 42.7167 12.6734C43.3203 12.6734 43.8102 12.1843 43.8102 11.58V8.26985H54.269V51.5982Z" fill="white"></path> <path d="M43.4609 37.3474L39.7717 33.6568C39.3446 33.2296 38.6528 33.2296 38.2256 33.6568C37.7985 34.0832 37.7985 34.7757 38.2256 35.2029L41.9148 38.8935L38.2256 42.5842C37.7985 43.0113 37.7985 43.7038 38.2256 44.1302C38.4392 44.3438 38.7191 44.4502 38.9991 44.4502C39.279 44.4502 39.5589 44.3438 39.7725 44.1302L43.4616 40.4396L47.1508 44.1302C47.3644 44.3438 47.6443 44.4502 47.9242 44.4502C48.2041 44.4502 48.484 44.3438 48.6976 44.1302C49.1248 43.7038 49.1248 43.0113 48.6976 42.5842L45.0085 38.8935L48.6976 35.2029C49.1248 34.7757 49.1248 34.0832 48.6976 33.6568C48.2705 33.2296 47.5787 33.2296 47.1515 33.6568L43.4609 37.3474Z" fill="white"></path> <path d="M16.5266 18.5669H9.78458C9.18028 18.5669 8.69116 19.056 8.69116 19.6603V26.4008C8.69116 27.0051 9.18028 27.4943 9.78458 27.4943H16.5266C17.1309 27.4943 17.62 27.0044 17.62 26.4008V19.6603C17.62 19.056 17.1309 18.5669 16.5266 18.5669ZM15.4332 25.3074H10.878V20.7537H15.4332V25.3074Z" fill="white"></path> <path d="M31.8877 18.5669H25.1479C24.5436 18.5669 24.0544 19.056 24.0544 19.6603V26.4008C24.0544 27.0051 24.5436 27.4943 25.1479 27.4943H31.8877C32.4912 27.4943 32.9811 27.0044 32.9811 26.4008V19.6603C32.9811 19.056 32.4919 18.5669 31.8877 18.5669ZM30.7942 25.3074H26.2413V20.7537H30.7942V25.3074Z" fill="white"></path> <path d="M16.5266 34.0715H9.78458C9.18028 34.0715 8.69116 34.5614 8.69116 35.1649V41.9055C8.69116 42.509 9.18028 42.9989 9.78458 42.9989H16.5266C17.1309 42.9989 17.62 42.509 17.62 41.9055V35.1649C17.62 34.5614 17.1309 34.0715 16.5266 34.0715ZM15.4332 40.8121H10.878V36.2584H15.4332V40.8121Z" fill="white"></path> <path d="M31.8877 34.0715H25.1479C24.5436 34.0715 24.0544 34.5614 24.0544 35.1649V41.9055C24.0544 42.509 24.5436 42.9989 25.1479 42.9989H31.8877C32.4912 42.9989 32.9811 42.509 32.9811 41.9055V35.1649C32.9811 34.5614 32.4919 34.0715 31.8877 34.0715ZM30.7942 40.8121H26.2413V36.2584H30.7942V40.8121Z" fill="white"></path> <path d="M39.8061 18.5669C39.2025 18.5669 38.7126 19.056 38.7126 19.6603V26.4008C38.7126 27.0051 39.2025 27.4943 39.8061 27.4943H46.548C47.1516 27.4943 47.6415 27.0044 47.6415 26.4008V19.6603C47.6415 19.056 47.1516 18.5669 46.548 18.5669H39.8061ZM45.4546 25.3074H40.8995V20.7537H45.4546V25.3074Z" fill="white"></path> </svg> 