<?xml version="1.0" encoding="UTF-8"?> <svg xmlns="http://www.w3.org/2000/svg" width="70" height="70" viewBox="0 0 70 70" fill="none"> <path d="M66.393 41.98C66.393 37.1042 62.4888 33.1317 57.6451 33.0047C54.0912 23.9905 45.3573 17.5696 35.1272 17.4329C35.9524 16.4117 36.7511 15.1185 36.7839 13.8964C36.8502 11.2716 35.2061 10.3131 34.0056 9.61351C32.9167 8.97875 32.3936 8.6272 32.3915 7.58019C32.3873 5.51478 34.3662 5.32366 34.7568 5.30692C35.3344 5.28948 35.7885 4.80678 35.7711 4.22922C35.7529 3.65166 35.2751 3.20524 34.6934 3.215C33.1706 3.26174 30.2919 4.2348 30.2996 7.58577C30.3059 9.87858 31.8356 10.77 32.9523 11.4215C34.1514 12.1205 34.7254 12.5153 34.6927 13.8434C34.6662 14.8409 33.216 16.577 32.125 17.5731C22.9126 18.5741 15.2188 24.6908 11.9404 33.0152C7.1748 33.2335 3.36206 37.1656 3.36206 41.9814C3.36206 46.802 7.1755 50.7369 11.9411 50.9552C15.532 60.0706 24.4186 66.541 34.7945 66.541C45.1669 66.541 54.0507 60.0741 57.6444 50.9635C62.4881 50.8359 66.393 46.8599 66.393 41.98ZM5.45398 41.98C5.45398 38.5718 7.94349 35.7412 11.1989 35.1901C10.5767 37.349 10.2363 39.6258 10.2363 41.9821C10.2363 44.3397 10.5774 46.6179 11.2003 48.7775C7.94419 48.2257 5.45398 45.3916 5.45398 41.98ZM34.7938 64.4469C22.4069 64.4469 12.3289 54.3696 12.3289 41.9821C12.3289 29.5945 22.4069 19.5165 34.7938 19.5165C47.1814 19.5165 57.2587 29.5945 57.2587 41.9821C57.2587 54.3696 47.1814 64.4469 34.7938 64.4469ZM58.3797 48.8047C59.0081 46.6367 59.3513 44.3495 59.3513 41.9821C59.3513 39.6153 59.0081 37.3288 58.3803 35.1622C61.7209 35.6372 64.2997 38.5097 64.2997 41.98C64.3004 45.4544 61.7202 48.3296 58.3797 48.8047Z" fill="#56B899"></path> <path d="M28.3584 39.3258C28.3584 39.9034 28.8265 40.3721 29.4047 40.3721C29.983 40.3721 30.451 39.9034 30.451 39.3258C30.451 36.6452 28.2698 34.464 25.5878 34.464C22.9058 34.464 20.7239 36.6452 20.7239 39.3258C20.7239 39.9034 21.1919 40.3721 21.7702 40.3721C22.3484 40.3721 22.8165 39.9034 22.8165 39.3258C22.8165 37.7996 24.0595 36.5566 25.5878 36.5566C27.1154 36.5566 28.3584 37.7996 28.3584 39.3258Z" fill="#56B899"></path> <path d="M43.7433 34.464C41.0613 34.464 38.8794 36.6452 38.8794 39.3258C38.8794 39.9034 39.3481 40.3721 39.9257 40.3721C40.5033 40.3721 40.972 39.9034 40.972 39.3258C40.972 37.7996 42.215 36.5566 43.7433 36.5566C45.2716 36.5566 46.5139 37.7989 46.5139 39.3258C46.5139 39.9034 46.9827 40.3721 47.5602 40.3721C48.1378 40.3721 48.6066 39.9034 48.6066 39.3258C48.6066 36.6452 46.4247 34.464 43.7433 34.464Z" fill="#56B899"></path> <path d="M44.572 46.2181C43.9944 46.2181 43.5257 46.6869 43.5257 47.2644C43.5257 52.0795 39.609 55.9976 34.7939 55.9976C29.9795 55.9976 26.0628 52.0802 26.0628 47.2644C26.0628 46.6869 25.5948 46.2181 25.0165 46.2181C24.4383 46.2181 23.9702 46.6869 23.9702 47.2644C23.9702 53.234 28.8258 58.0902 34.7939 58.0902C40.7627 58.0902 45.6183 53.234 45.6183 47.2644C45.6183 46.6869 45.1502 46.2181 44.572 46.2181Z" fill="#56B899"></path> </svg> 