<?xml version="1.0" encoding="UTF-8"?> <svg xmlns="http://www.w3.org/2000/svg" width="57" height="41" viewBox="0 0 57 41" fill="none"> <path d="M55.4968 0H9.45416C8.89229 0 8.4375 0.454787 8.4375 1.01666V6.59679C8.4375 7.15866 8.89229 7.61345 9.45416 7.61345C10.016 7.61345 10.4708 7.15866 10.4708 6.59679V2.03333H54.4808V27.6404H50.2813C49.7201 27.6404 49.2647 28.0958 49.2647 28.657C49.2647 29.2182 49.7201 29.6737 50.2813 29.6737H55.4975C56.0587 29.6737 56.5141 29.2182 56.5141 28.657V1.01666C56.5135 0.454787 56.0587 0 55.4968 0Z" fill="white"></path> <path d="M47.6768 8.52234H1.01666C0.454787 8.52234 0 8.97713 0 9.539V39.9833C0 40.5445 0.454787 41 1.01666 41H47.6768C48.238 41 48.6934 40.5445 48.6934 39.9833V9.539C48.6934 8.97713 48.238 8.52234 47.6768 8.52234ZM46.6601 10.5557V31.888L39.0738 31.8866L32.317 26.2794C31.9463 25.9717 31.4095 25.9683 31.0333 26.2665L24.4575 31.5132L14.4942 20.5386C14.3017 20.3265 14.0293 20.2058 13.7433 20.2052C13.7426 20.2052 13.7419 20.2052 13.7412 20.2052C13.4559 20.2052 13.1841 20.3251 12.9916 20.5352L2.03333 32.5081V10.5557H46.6601ZM2.03333 38.9667V35.5195L13.7385 22.7305L23.5934 33.5865C23.9553 33.9843 24.5619 34.0325 24.9801 33.6983L31.6548 28.3724L38.0571 33.6861C38.2401 33.8379 38.4692 33.9206 38.7064 33.9206L46.6594 33.9227V38.968H2.03333V38.9667Z" fill="white"></path> <path d="M38.1966 21.3567C40.4183 21.3567 42.2266 19.5491 42.2266 17.3267C42.2266 15.1049 40.4183 13.2966 38.1966 13.2966C35.9748 13.2966 34.1665 15.1043 34.1665 17.3267C34.1665 19.5491 35.9748 21.3567 38.1966 21.3567ZM38.1966 15.33C39.2979 15.33 40.1933 16.2253 40.1933 17.3267C40.1933 18.4281 39.2979 19.3234 38.1966 19.3234C37.0952 19.3234 36.1998 18.4274 36.1998 17.3267C36.1998 16.226 37.0952 15.33 38.1966 15.33Z" fill="white"></path> </svg> 