<?xml version="1.0" encoding="UTF-8"?> <svg xmlns="http://www.w3.org/2000/svg" width="71" height="71" viewBox="0 0 71 71" fill="none"> <path d="M44.2461 51.6774C43.7077 51.4526 43.0882 51.7021 42.8606 52.2398C41.6048 55.2109 38.7098 57.1298 35.4865 57.1298C32.4132 57.1298 29.5739 55.3328 28.2533 52.5527C28.0031 52.0263 27.3738 51.8001 26.8446 52.0516C26.3167 52.3011 26.0926 52.9325 26.3435 53.4597C28.0123 56.9734 31.6014 59.2439 35.4865 59.2439C39.5618 59.2439 43.2207 56.8176 44.8084 53.0629C45.0354 52.5252 44.7845 51.9051 44.2461 51.6774Z" fill="#56B899"></path> <path d="M30.285 41.6726C30.6748 41.2378 30.6381 40.5698 30.2033 40.18C29.7678 39.7903 29.1011 39.827 28.7107 40.2618C27.4133 41.71 26.1153 42.4168 24.8397 42.352C22.8651 42.2575 21.4472 40.3647 21.4317 40.3435C21.0885 39.8728 20.4296 39.7692 19.9582 40.111C19.4853 40.4535 19.3803 41.1152 19.7228 41.5881C19.8031 41.6987 21.7284 44.3083 24.7178 44.4626C24.8122 44.4675 24.906 44.4703 24.9997 44.4703C26.8439 44.4703 28.6212 43.5303 30.285 41.6726Z" fill="#56B899"></path> <path d="M49.1825 40.2618C47.8859 41.7093 46.5828 42.4196 45.3115 42.352C43.3426 42.2582 41.9261 40.3774 41.9007 40.3435C41.5575 39.8728 40.8965 39.7699 40.4265 40.1117C39.9536 40.4542 39.8493 41.1152 40.1918 41.5881C40.2721 41.6987 42.1988 44.309 45.1903 44.4626C45.284 44.4682 45.3778 44.4703 45.4708 44.4703C47.3157 44.4703 49.093 43.5303 50.7569 41.6726C51.1466 41.2378 51.1099 40.5698 50.6751 40.18C50.2403 39.7896 49.5708 39.827 49.1825 40.2618Z" fill="#56B899"></path> <path d="M60.1564 31.1554C59.9901 28.2717 59.0937 20.5749 54.2671 16.0485C51.6097 13.5559 48.1939 12.4312 44.12 12.7074C41.7472 12.8681 39.583 13.0577 37.6732 13.224C25.7819 14.2648 22.1935 14.5777 18.5254 4.35937C18.3633 3.90554 17.8926 3.62083 17.4099 3.66593C17.2717 3.67932 17.1371 3.71949 17.0138 3.78433C16.7044 3.94782 9.41276 7.88506 7.281 15.7849C5.98221 20.5967 6.89552 25.7792 9.99274 31.2055C5.42267 31.9137 1.90967 35.8622 1.90967 40.6261C1.90967 45.8938 6.19222 50.1792 11.4564 50.1792H12.1435C15.7799 59.9057 24.791 66.8126 35.3124 66.8126C45.831 66.8126 54.8394 59.9064 58.475 50.1792H59.0176C64.2804 50.1792 68.5623 45.8938 68.5623 40.6261C68.5616 35.7481 64.8823 31.7185 60.1564 31.1554ZM9.31622 16.355C10.7524 11.0055 15.0202 7.6067 16.9884 6.28254C21.1174 16.7934 26.1878 16.3494 37.8572 15.3297C39.7564 15.1634 41.91 14.9752 44.263 14.8159C47.7239 14.5798 50.6033 15.5129 52.8161 17.5847C57.153 21.6467 57.9176 29.018 58.0522 31.4613C48.7901 33.531 45.5942 23.6354 45.4603 23.2027C45.3419 22.8173 45.0142 22.5326 44.6161 22.4691C44.2144 22.4057 43.8176 22.5748 43.5851 22.9053C37.6951 31.283 28.0785 33.0455 24.2174 33.4148C19.1583 33.8975 14.436 32.9694 12.3874 31.1005C9.13792 25.832 8.10411 20.8708 9.31622 16.355ZM4.02381 40.6261C4.02381 36.8805 6.81237 33.7826 10.4205 33.2759V40.6261C10.4205 43.2096 10.7834 45.705 11.4494 48.0644C7.35429 48.0608 4.02381 44.7254 4.02381 40.6261ZM35.3117 64.6984C22.7523 64.6984 12.5347 53.9001 12.5347 40.6268V33.7657C14.7467 34.9884 17.9116 35.6614 21.5043 35.6614C22.4493 35.6614 23.4246 35.6149 24.419 35.5197C28.3329 35.1455 37.7529 33.4324 44.1763 25.6185C45.7267 28.8609 49.8789 35.2083 58.0825 33.6114V40.6268C58.0825 53.8994 47.8676 64.6984 35.3117 64.6984ZM59.1698 48.0573C59.8344 45.7 60.1966 43.2075 60.1966 40.6261V33.2971C63.7336 33.863 66.4474 36.9292 66.4474 40.6261C66.4474 44.6761 63.1959 47.9749 59.1698 48.0573Z" fill="#56B899"></path> </svg> 