<?xml version="1.0" encoding="UTF-8"?> <svg xmlns="http://www.w3.org/2000/svg" width="70" height="70" viewBox="0 0 70 70" fill="none"> <path d="M40.7943 15.1786H40.2502C37.1992 15.1786 34.7167 17.6612 34.7167 20.7122V26.061C33.7095 25.2212 32.4149 24.7154 31.0038 24.7154C29.0374 24.7154 27.2922 25.6948 26.2459 27.2182C25.1996 25.6948 23.4537 24.7154 21.486 24.7154C20.1307 24.7154 18.8549 25.2002 17.8455 26.0191L17.6809 13.3357C17.6809 10.1347 15.077 7.53003 11.8754 7.53003C8.67371 7.53003 6.06982 10.134 6.06982 13.3434L6.28187 41.1573C6.28187 41.3875 6.34884 49.7231 6.34884 49.7273C6.34884 56.5005 10.7879 62.9541 16.689 64.7831C17.3098 65.0817 20.1502 66.2152 27.4575 66.2152C27.4603 66.2152 27.4624 66.2152 27.4659 66.2152C34.3024 66.2152 38.1848 64.4643 38.5713 64.2816C45.3687 61.3582 46.286 55.2853 46.286 49.7287V41.9085L46.2943 41.8423C46.3125 41.7055 46.3278 41.5695 46.3278 41.4293V20.7122C46.3278 17.6612 43.8453 15.1786 40.7943 15.1786ZM31.0045 26.8081C33.0517 26.8081 34.7174 28.4738 34.7174 30.5211C34.7174 30.5671 34.7251 30.6118 34.7314 30.6564V34.8835C34.7314 36.8318 33.0615 38.4159 31.0093 38.4159C28.9558 38.4159 27.2852 36.8318 27.2852 34.8835V30.3279C27.3013 30.27 27.3292 30.2184 27.3354 30.157C27.5259 28.2471 29.1037 26.8081 31.0045 26.8081ZM21.4867 26.8081C23.3895 26.8081 24.968 28.2471 25.1592 30.1563C25.1605 30.1709 25.1696 30.1835 25.1717 30.1981V34.8835C25.1717 36.8311 23.5395 38.4145 21.5334 38.4159C21.5327 38.4159 21.532 38.4152 21.5306 38.4152H21.5236C19.5189 38.4117 17.8895 36.829 17.8895 34.8835V29.6541C18.2927 28.0016 19.791 26.8081 21.4867 26.8081ZM11.8761 9.62266C13.9233 9.62266 15.589 11.2884 15.589 13.3489L15.7962 29.3011V34.8835C15.7962 36.2207 16.2761 37.4491 17.0734 38.4152H8.35424L8.16311 13.335C8.16311 11.2884 9.82882 9.62266 11.8761 9.62266ZM44.2352 41.43C44.2352 41.476 44.2262 41.5207 44.2206 41.5646L44.199 41.7467C44.1955 41.7802 44.1941 41.8144 44.1941 41.8478V49.728C44.1941 54.8536 43.4107 59.931 37.728 62.3661C37.7126 62.3731 37.6966 62.3801 37.6819 62.387C37.6456 62.4045 34.0492 64.1218 27.4666 64.1218C27.4645 64.1218 27.4617 64.1218 27.4589 64.1218C20.0651 64.1218 17.5951 62.8955 17.5833 62.89C17.5191 62.8551 17.4521 62.8265 17.3817 62.8056C12.2848 61.2703 8.44213 55.6474 8.44213 49.7182C8.44213 49.7182 8.37516 41.3868 8.37516 41.1482L8.37028 40.5085H20.5931C20.6085 41.3428 20.4459 42.7037 19.4603 43.9921C17.9251 45.9996 16.281 46.4739 15.5081 46.58C15.241 46.5779 15.0715 46.5904 15.038 46.5932C15.0003 46.5967 14.9654 46.6072 14.9299 46.6142C14.4144 46.6588 13.9945 47.0543 13.9596 47.5823C13.9212 48.1585 14.3579 48.6573 14.934 48.6956C14.9487 48.6963 14.9982 48.6991 15.0784 48.6991C15.1838 48.6991 15.3463 48.6921 15.5472 48.6726C16.4874 48.6845 19.3097 48.9558 21.8243 51.649C24.8181 54.857 24.6144 57.9318 24.6046 58.0539C24.5516 58.6294 24.975 59.1393 25.5505 59.1923C25.5833 59.1951 25.6153 59.1965 25.6481 59.1965C26.1824 59.1965 26.6386 58.7891 26.6888 58.2464C26.7042 58.0811 27.0202 54.149 23.3546 50.2219C21.9289 48.6942 20.4062 47.8056 19.0571 47.2873C19.7414 46.799 20.4466 46.1482 21.1225 45.2651C22.4918 43.4752 22.7087 41.58 22.6773 40.3976C24.1442 40.104 25.4075 39.2572 26.2347 38.0916C27.2866 39.5522 29.0325 40.5113 31.0079 40.5113C34.2145 40.5113 36.8226 37.9876 36.8226 34.8863V29.2411C36.8226 29.1951 36.8149 29.1504 36.8086 29.1058V20.7122C36.8086 18.8149 38.3522 17.2712 40.2495 17.2712H40.7936C42.6909 17.2712 44.2345 18.8149 44.2345 20.7122V41.43H44.2352Z" fill="#56B899"></path> <path d="M64.6777 16.6099L59.7433 12.7358L60.6355 4.70006C60.6892 4.21317 60.3976 3.75349 59.9344 3.59515C59.4706 3.4368 58.9586 3.62096 58.7026 4.03878L51.721 15.4388C51.4455 15.8887 51.548 16.4725 51.9596 16.8018L56.737 20.625L55.8441 28.6663C55.7904 29.1511 56.0785 29.6087 56.5389 29.7698C56.6526 29.8096 56.769 29.8284 56.8841 29.8284C57.2357 29.8284 57.5733 29.6505 57.77 29.3394L64.9176 17.9904C65.2029 17.537 65.099 16.9406 64.6777 16.6099ZM58.4271 24.3694L58.8805 20.2839C58.9202 19.9275 58.7744 19.5752 58.494 19.352L53.9873 15.745L58.0379 9.13226L57.5984 13.0852C57.5586 13.4452 57.7072 13.8002 57.9925 14.0234L62.643 17.6744L58.4271 24.3694Z" fill="#56B899"></path> </svg> 